<svg id="filled_outline" height="512" viewBox="0 0 512 512" width="512" xmlns="http://www.w3.org/2000/svg" data-name="filled outline"><path d="m240 24h208v136h-208z" fill="#5771e5"/><path d="m96 304v-120a79.99991 79.99991 0 0 1 79.99992-79.99992h.00016a79.99991 79.99991 0 0 1 79.99992 79.99992v120z" fill="#b36f42"/><path d="m37.78 480.58a126.70969 126.70969 0 0 0 8.07-44.50989 126.838 126.838 0 0 0 -10.92007-51.49011 126.64015 126.64015 0 0 1 -10.92993-51.48v-13.83a55.26331 55.26331 0 0 1 55.27-55.27h157.51a39.98519 39.98519 0 0 1 31.23 15.01l51.99 64.99v72h-18.66992l-54.11008-64.92993a39.04651 39.04651 0 0 1 -10.06995 21.24 38.609 38.609 0 0 1 -21.15005 11.68993v112h-184z" fill="#f5a431"/><path d="m208 320-32 44.8-8 11.2-8-11.2-32-44.8 24-24h32z" fill="#f7c04a"/><path d="m112 264h112v32h-112z" fill="#f7c04a"/><path d="m176 296v68.8l-8 11.2-8-11.2v-68.8z" fill="#f7d179"/><path d="m200 224v48l-9.14 16-22.86 40-32-56v-48z" fill="#ffceb6"/><path d="m304 408-36.14452-18.07226a32 32 0 0 0 -24.43012-1.73619l-35.42536 11.80845h-8v56h24l32-32h48z" fill="#ffceb6"/><path d="m284 488h-124a24 24 0 0 1 -24-24v-8h148z" fill="#cad8ed"/><path d="m304 192h184v96h-184z" fill="#5771e5"/><circle cx="440" cy="240" fill="#5ebd92" r="16"/><circle cx="288" cy="72" fill="#f7c04a" r="16"/><path d="m408 488 64-152h-152l-64 152z" fill="#e4e9f2"/><circle cx="368" cy="408" fill="#cad8ed" r="16"/><path d="m135.99881 184a35.09937 35.09937 0 0 0 24-33.29819v-6.70181a35.09937 35.09937 0 0 0 33.29819 24h30.7018l.0012 59.99858a44.00055 44.00055 0 0 1 -44.00055 44.00142h-.00009a44.00055 44.00055 0 0 1 -44.00055-44.00055z" fill="#ffceb6"/><circle cx="168" cy="200" r="8"/><circle cx="200" cy="200" r="8"/><path d="m167.15527 220.42236-14.31054 7.15528a36.74208 36.74208 0 0 0 33.04394 20.42236h14.11133v-16h-14.11133a20.831 20.831 0 0 1 -18.7334-11.57764z"/><path d="m472 328h-152a7.99079 7.99079 0 0 0 -2.28552.33667l-43.45764-54.322a48.14388 48.14388 0 0 0 -10.94373-10.01467h.68689v-80a88 88 0 0 0 -176 0v72h-8.7334a63.33835 63.33835 0 0 0 -63.2666 63.2666c0 .245.01062.48877.01343.7334h-.01343v13.09717a133.93571 133.93571 0 0 0 11.61572 54.73633 118.08644 118.08644 0 0 1 2.67428 89.9414l-5.78076 15.416 14.98144 5.61816 5.78076-15.416a133.99927 133.99927 0 0 0 -3.03462-102.05806q-1.9391-4.363-3.51209-8.82617l49.119 73.6792a39.92 39.92 0 0 0 33.28227 17.81197h6.874a32.036 32.036 0 0 0 32 32h248a8.00021 8.00021 0 0 0 7.373-4.89551l64-152a8 8 0 0 0 -7.373-11.10449zm-368-144a72 72 0 0 1 144 0v73.32617a48.32166 48.32166 0 0 0 -11.2251-1.32617h-12.95239a51.63624 51.63624 0 0 0 8.17847-28.00146l-.00098-59.99854a7.99977 7.99977 0 0 0 -8-8h-30.70166a27.065 27.065 0 0 1 -25.709-18.52979 8 8 0 0 0 -15.58934 2.52979v6.70166a27.06439 27.06439 0 0 1 -18.52979 25.709 8.00011 8.00011 0 0 0 -5.47021 7.58934v72h-24zm16 88h8a7.99958 7.99958 0 0 0 1.0542 3.96924l6.8748 12.03076h-15.929zm48 39.87549-24-42v-4.406a51.80687 51.80687 0 0 0 36.00049 14.53051 52.80218 52.80218 0 0 0 6.44775-.40894zm37.457-58.41992a36.00064 36.00064 0 0 1 -61.457-25.45606v-38.65722a43.037 43.037 0 0 0 21.31787-23.64307 43.035 43.035 0 0 0 27.98047 10.30078h22.70166l.001 51.99854a35.76688 35.76688 0 0 1 -10.544 25.45703zm-56.661 57.06189 11.204 19.60693v20.912l-21.55127-30.17163zm27.204 19.60693 11.204-19.60693 10.34729 10.34729-21.55129 30.17163zm30.9458-54.15515a7.99958 7.99958 0 0 0 1.0542-3.96924h8v16h-15.929zm-85.8198 172.03076a23.95187 23.95187 0 0 1 -19.96924-10.687l-61.21828-91.82814a47.26611 47.26611 0 0 1 39.32812-73.48486h24.7334v24a7.99977 7.99977 0 0 0 8 8h20.68652l-10.34326 10.34326a7.99958 7.99958 0 0 0 -.853 10.30664l40 56a7.9998 7.9998 0 0 0 13.01954 0l40-56a7.99958 7.99958 0 0 0 -.853-10.30664l-10.34332-10.34326h20.68652a7.99977 7.99977 0 0 0 8-8v-24h4.7749a31.84248 31.84248 0 0 1 24.9878 12.00977l46.81054 58.51323-19.48755 46.283-33.62036-40.34436a46.80512 46.80512 0 0 0 -1.7041-15.53l-4.32223-15.12939-15.38476 4.3955 4.32226 15.1294a30.8836 30.8836 0 0 1 -23.88232 38.81592 7.99954 7.99954 0 0 0 -6.49418 7.85693v7.56714l-1.29834.43286h-66.53666l-53.61129-76.58789-13.10742 9.17578 56 80a8.001 8.001 0 0 0 6.55371 3.41211h56v40zm143.03589 0h-20.84841l16-16h11.5852zm13.47363-32h-21.63552a7.99877 7.99877 0 0 0 -5.65674 2.34326l-29.65674 29.65674h-12.68652v-40a7.99908 7.99908 0 0 0 2.52979-.41064l35.42529-11.8086a23.84631 23.84631 0 0 1 18.32275 1.30225l17.6145 8.80725zm-29.0232-45.62012c.61915-1.00634 1.18335-2.03906 1.7212-3.083l9.82031 11.78454a39.79388 39.79388 0 0 0 -19.2583 1.52063l-1.28321.42774a46.7858 46.7858 0 0 0 8.99998-10.64991zm-104.61232 93.62012h113.42505l-6.73682 16h-90.68823a16.01833 16.01833 0 0 1 -16-16zm258.688 16h-134.63917l57.26317-136h134.63917z"/><path d="m368 432a24 24 0 1 0 -24-24 24.02687 24.02687 0 0 0 24 24zm0-32a8 8 0 1 1 -8 8 8.00917 8.00917 0 0 1 8-8z"/><path d="m488 184h-184a7.99977 7.99977 0 0 0 -8 8v96a7.99977 7.99977 0 0 0 8 8h184a7.99977 7.99977 0 0 0 8-8v-96a7.99977 7.99977 0 0 0 -8-8zm-8 96h-168v-80h168z"/><path d="m248 32h192v120h-160v16h168a7.99977 7.99977 0 0 0 8-8v-136a7.99977 7.99977 0 0 0 -8-8h-208a7.99977 7.99977 0 0 0 -8 8v80h16z"/><path d="m440 264a24 24 0 1 0 -24-24 24.02687 24.02687 0 0 0 24 24zm0-32a8 8 0 1 1 -8 8 8.00917 8.00917 0 0 1 8-8z"/><path d="m312 72a24 24 0 1 0 -24 24 24.02687 24.02687 0 0 0 24-24zm-32 0a8 8 0 1 1 8 8 8.00917 8.00917 0 0 1 -8-8z"/><path d="m328 216h40v16h-40z"/><path d="m384 216h24v16h-24z"/><path d="m352 248h56v16h-56z"/><path d="m328 56h16v16h-16z"/><path d="m360 56h64v16h-64z"/><path d="m328 88h64v16h-64z"/><path d="m328 120h32v16h-32z"/><path d="m376 120h40v16h-40z"/></svg>